<mxGraphModel dx="1722" dy="926" grid="1" gridSize="10" guides="1" tooltips="1" connect="1" arrows="1" fold="1" page="1" pageScale="1" pageWidth="827" pageHeight="1169" math="0" shadow="0">
  <root>
    <mxCell id="0" />
    <mxCell id="1" parent="0" />
    <mxCell id="user_moscow" value="Пользователи&lt;div&gt;Москва&lt;/div&gt;" style="rounded=1;whiteSpace=wrap;html=1;fillColor=#e1d5e7;strokeColor=#9673a6;fontSize=12;fontStyle=1;" vertex="1" parent="1">
      <mxGeometry x="50" y="40" width="120" height="60" as="geometry" />
    </mxCell>
    <mxCell id="user_spb" value="Пользователи&lt;div&gt;СПб&lt;/div&gt;" style="rounded=1;whiteSpace=wrap;html=1;fillColor=#e1d5e7;strokeColor=#9673a6;fontSize=12;fontStyle=1;" vertex="1" parent="1">
      <mxGeometry x="250" y="40" width="120" height="60" as="geometry" />
    </mxCell>
    <mxCell id="user_kzn" value="Пользователи&lt;div&gt;Казань&lt;/div&gt;" style="rounded=1;whiteSpace=wrap;html=1;fillColor=#e1d5e7;strokeColor=#9673a6;fontSize=12;fontStyle=1;" vertex="1" parent="1">
      <mxGeometry x="450" y="40" width="120" height="60" as="geometry" />
    </mxCell>
    <mxCell id="user_nsk" value="Пользователи&lt;div&gt;Новосибирск&lt;/div&gt;" style="rounded=1;whiteSpace=wrap;html=1;fillColor=#e1d5e7;strokeColor=#9673a6;fontSize=12;fontStyle=1;" vertex="1" parent="1">
      <mxGeometry x="650" y="40" width="120" height="60" as="geometry" />
    </mxCell>
    <mxCell id="geodns" value="GeoDNS&lt;div&gt;(Yandex Cloud)&lt;/div&gt;" style="ellipse;whiteSpace=wrap;html=1;fillColor=#ffe6cc;strokeColor=#d79b00;fontSize=14;fontStyle=1;" vertex="1" parent="1">
      <mxGeometry x="320" y="140" width="160" height="80" as="geometry" />
    </mxCell>
    <mxCell id="cdn_moscow" value="CDN PoP&lt;div&gt;Москва&lt;/div&gt;" style="shape=hexagon;perimeter=hexagonPerimeter2;whiteSpace=wrap;html=1;fixedSize=1;fillColor=#f8cecc;strokeColor=#b85450;fontSize=12;fontStyle=1;" vertex="1" parent="1">
      <mxGeometry x="80" y="290" width="100" height="70" as="geometry" />
    </mxCell>
    <mxCell id="cdn_spb" value="CDN PoP&lt;div&gt;СПб&lt;/div&gt;" style="shape=hexagon;perimeter=hexagonPerimeter2;whiteSpace=wrap;html=1;fixedSize=1;fillColor=#f8cecc;strokeColor=#b85450;fontSize=12;fontStyle=1;" vertex="1" parent="1">
      <mxGeometry x="220" y="295" width="100" height="70" as="geometry" />
    </mxCell>
    <mxCell id="cdn_kzn" value="CDN PoP&lt;div&gt;Казань&lt;/div&gt;" style="shape=hexagon;perimeter=hexagonPerimeter2;whiteSpace=wrap;html=1;fixedSize=1;fillColor=#f8cecc;strokeColor=#b85450;fontSize=12;fontStyle=1;" vertex="1" parent="1">
      <mxGeometry x="480" y="290" width="100" height="70" as="geometry" />
    </mxCell>
    <mxCell id="cdn_nsk" value="CDN PoP&lt;div&gt;Новосибирск&lt;/div&gt;" style="shape=hexagon;perimeter=hexagonPerimeter2;whiteSpace=wrap;html=1;fixedSize=1;fillColor=#f8cecc;strokeColor=#b85450;fontSize=12;fontStyle=1;" vertex="1" parent="1">
      <mxGeometry x="620" y="290" width="100" height="70" as="geometry" />
    </mxCell>
    <mxCell id="object_storage" value="Object Storage&lt;div&gt;(Origin Server)&lt;/div&gt;" style="shape=cylinder3;whiteSpace=wrap;html=1;boundedLbl=1;backgroundOutline=1;size=15;fillColor=#e1d5e7;strokeColor=#9673a6;fontSize=12;fontStyle=1;" vertex="1" parent="1">
      <mxGeometry x="1030" y="290" width="140" height="110" as="geometry" />
    </mxCell>
    <mxCell id="apisix" value="APISIX&lt;div&gt;API Gateway&lt;/div&gt;" style="rounded=1;whiteSpace=wrap;html=1;fillColor=#d0cee2;strokeColor=#56517e;fontSize=14;fontStyle=1;" vertex="1" parent="1">
      <mxGeometry x="330" y="430" width="140" height="70" as="geometry" />
    </mxCell>
    <mxCell id="consul" value="Consul&lt;div&gt;Service Discovery&lt;/div&gt;" style="shape=cylinder3;whiteSpace=wrap;html=1;boundedLbl=1;backgroundOutline=1;size=15;fillColor=#f0f0f0;strokeColor=#666666;fontSize=12;fontStyle=1;" vertex="1" parent="1">
      <mxGeometry x="785" y="420" width="115" height="90" as="geometry" />
    </mxCell>
    <mxCell id="app1" value="pymongo-api-1" style="rounded=1;whiteSpace=wrap;html=1;fillColor=#dae8fc;strokeColor=#6c8ebf;fontSize=12;fontStyle=1;" vertex="1" parent="1">
      <mxGeometry x="200" y="610" width="120" height="60" as="geometry" />
    </mxCell>
    <mxCell id="app2" value="pymongo-api-2" style="rounded=1;whiteSpace=wrap;html=1;fillColor=#dae8fc;strokeColor=#6c8ebf;fontSize=12;fontStyle=1;" vertex="1" parent="1">
      <mxGeometry x="385" y="605" width="120" height="60" as="geometry" />
    </mxCell>
    <mxCell id="app3" value="pymongo-api-3" style="rounded=1;whiteSpace=wrap;html=1;fillColor=#dae8fc;strokeColor=#6c8ebf;fontSize=12;fontStyle=1;" vertex="1" parent="1">
      <mxGeometry x="565" y="605" width="120" height="60" as="geometry" />
    </mxCell>
    <mxCell id="redis" value="Redis&lt;div&gt;Cluster&lt;/div&gt;" style="shape=cylinder3;whiteSpace=wrap;html=1;boundedLbl=1;backgroundOutline=1;size=15;fillColor=#fff2cc;strokeColor=#d6b656;fontSize=12;fontStyle=1;" vertex="1" parent="1">
      <mxGeometry x="1000" y="620" width="140" height="90" as="geometry" />
    </mxCell>
    <mxCell id="router1" value="mongos-r1" style="rounded=1;whiteSpace=wrap;html=1;fillColor=#e1d5e7;strokeColor=#9673a6;fontSize=12;fontStyle=1;" vertex="1" parent="1">
      <mxGeometry x="430" y="770" width="120" height="60" as="geometry" />
    </mxCell>
    <mxCell id="router2" value="mongos-r2" style="rounded=1;whiteSpace=wrap;html=1;fillColor=#e1d5e7;strokeColor=#9673a6;fontSize=12;fontStyle=1;" vertex="1" parent="1">
      <mxGeometry x="650" y="770" width="120" height="60" as="geometry" />
    </mxCell>
    <mxCell id="router3" value="mongos-r3" style="rounded=1;whiteSpace=wrap;html=1;fillColor=#e1d5e7;strokeColor=#9673a6;fontSize=12;fontStyle=1;" vertex="1" parent="1">
      <mxGeometry x="830" y="770" width="120" height="60" as="geometry" />
    </mxCell>
    <mxCell id="config_group" value="Config Servers RS" style="rounded=1;whiteSpace=wrap;html=1;fillColor=#f8cecc;strokeColor=#b85450;fontSize=12;fontStyle=1;dashed=1;" vertex="1" parent="1">
      <mxGeometry x="35" y="1010" width="300" height="40" as="geometry" />
    </mxCell>
    <mxCell id="config1" value="configSrv-1&lt;div&gt;(Primary)&lt;/div&gt;" style="shape=cylinder3;whiteSpace=wrap;html=1;boundedLbl=1;backgroundOutline=1;size=15;fillColor=#f8cecc;strokeColor=#b85450;fontSize=11;fontStyle=1;" vertex="1" parent="1">
      <mxGeometry x="80" y="1070" width="90" height="80" as="geometry" />
    </mxCell>
    <mxCell id="config2" value="configSrv-2&lt;div&gt;(Secondary)&lt;/div&gt;" style="shape=cylinder3;whiteSpace=wrap;html=1;boundedLbl=1;backgroundOutline=1;size=15;fillColor=#f8cecc;strokeColor=#b85450;fontSize=11;" vertex="1" parent="1">
      <mxGeometry x="200" y="1070" width="90" height="80" as="geometry" />
    </mxCell>
    <mxCell id="config3" value="configSrv-3&lt;div&gt;(Secondary)&lt;/div&gt;" style="shape=cylinder3;whiteSpace=wrap;html=1;boundedLbl=1;backgroundOutline=1;size=15;fillColor=#f8cecc;strokeColor=#b85450;fontSize=11;" vertex="1" parent="1">
      <mxGeometry x="140" y="1200" width="90" height="80" as="geometry" />
    </mxCell>
    <mxCell id="shard1_group" value="Shard 1 RS" style="rounded=1;whiteSpace=wrap;html=1;fillColor=#d5e8d4;strokeColor=#82b366;fontSize=12;fontStyle=1;dashed=1;" vertex="1" parent="1">
      <mxGeometry x="790" y="1090" width="250" height="40" as="geometry" />
    </mxCell>
    <mxCell id="shard1_1" value="shard1-1&lt;div&gt;(Primary)&lt;/div&gt;" style="shape=cylinder3;whiteSpace=wrap;html=1;boundedLbl=1;backgroundOutline=1;size=15;fillColor=#d5e8d4;strokeColor=#82b366;fontSize=11;fontStyle=1;" vertex="1" parent="1">
      <mxGeometry x="820" y="1160" width="90" height="80" as="geometry" />
    </mxCell>
    <mxCell id="shard1_2" value="shard1-2&lt;div&gt;(Secondary)&lt;/div&gt;" style="shape=cylinder3;whiteSpace=wrap;html=1;boundedLbl=1;backgroundOutline=1;size=15;fillColor=#d5e8d4;strokeColor=#82b366;fontSize=11;" vertex="1" parent="1">
      <mxGeometry x="930" y="1160" width="90" height="80" as="geometry" />
    </mxCell>
    <mxCell id="shard1_3" value="shard1-3&lt;div&gt;(Secondary)&lt;/div&gt;" style="shape=cylinder3;whiteSpace=wrap;html=1;boundedLbl=1;backgroundOutline=1;size=15;fillColor=#d5e8d4;strokeColor=#82b366;fontSize=11;" vertex="1" parent="1">
      <mxGeometry x="875" y="1280" width="90" height="80" as="geometry" />
    </mxCell>
    <mxCell id="shard2_group" value="Shard 2 RS" style="rounded=1;whiteSpace=wrap;html=1;fillColor=#d5e8d4;strokeColor=#82b366;fontSize=12;fontStyle=1;dashed=1;" vertex="1" parent="1">
      <mxGeometry x="1140" y="1090" width="250" height="40" as="geometry" />
    </mxCell>
    <mxCell id="shard2_1" value="shard2-1&lt;div&gt;(Primary)&lt;/div&gt;" style="shape=cylinder3;whiteSpace=wrap;html=1;boundedLbl=1;backgroundOutline=1;size=15;fillColor=#d5e8d4;strokeColor=#82b366;fontSize=11;fontStyle=1;" vertex="1" parent="1">
      <mxGeometry x="1170" y="1160" width="90" height="80" as="geometry" />
    </mxCell>
    <mxCell id="shard2_2" value="shard2-2&lt;div&gt;(Secondary)&lt;/div&gt;" style="shape=cylinder3;whiteSpace=wrap;html=1;boundedLbl=1;backgroundOutline=1;size=15;fillColor=#d5e8d4;strokeColor=#82b366;fontSize=11;" vertex="1" parent="1">
      <mxGeometry x="1280" y="1160" width="90" height="80" as="geometry" />
    </mxCell>
    <mxCell id="shard2_3" value="shard2-3&lt;div&gt;(Secondary)&lt;/div&gt;" style="shape=cylinder3;whiteSpace=wrap;html=1;boundedLbl=1;backgroundOutline=1;size=15;fillColor=#d5e8d4;strokeColor=#82b366;fontSize=11;" vertex="1" parent="1">
      <mxGeometry x="1225" y="1280" width="90" height="80" as="geometry" />
    </mxCell>
    <mxCell id="user_moscow_to_geodns" style="edgeStyle=orthogonalEdgeStyle;rounded=0;orthogonalLoop=1;jettySize=auto;html=1;strokeWidth=3;strokeColor=#d79b00;exitX=0.5;exitY=1;exitDx=0;exitDy=0;endArrow=none;endFill=0;" edge="1" parent="1" source="user_moscow">
      <mxGeometry relative="1" as="geometry">
        <Array as="points">
          <mxPoint x="110" y="120" />
          <mxPoint x="360" y="120" />
        </Array>
        <mxPoint x="360" y="120" as="targetPoint" />
      </mxGeometry>
    </mxCell>
    <mxCell id="user_spb_to_geodns" style="edgeStyle=orthogonalEdgeStyle;rounded=0;orthogonalLoop=1;jettySize=auto;html=1;strokeWidth=3;strokeColor=#d79b00;entryX=0.5;entryY=0;entryDx=0;entryDy=0;exitX=0.5;exitY=1;exitDx=0;exitDy=0;" edge="1" parent="1" source="user_spb" target="geodns">
      <mxGeometry relative="1" as="geometry">
        <Array as="points">
          <mxPoint x="310" y="120" />
          <mxPoint x="400" y="120" />
        </Array>
      </mxGeometry>
    </mxCell>
    <mxCell id="user_kzn_to_geodns" style="edgeStyle=orthogonalEdgeStyle;rounded=0;orthogonalLoop=1;jettySize=auto;html=1;strokeWidth=3;strokeColor=#d79b00;entryX=0.5;entryY=0;entryDx=0;entryDy=0;exitX=0.5;exitY=1;exitDx=0;exitDy=0;" edge="1" parent="1" source="user_kzn" target="geodns">
      <mxGeometry relative="1" as="geometry">
        <Array as="points">
          <mxPoint x="510" y="120" />
          <mxPoint x="400" y="120" />
        </Array>
      </mxGeometry>
    </mxCell>
    <mxCell id="user_nsk_to_geodns" style="edgeStyle=orthogonalEdgeStyle;rounded=0;orthogonalLoop=1;jettySize=auto;html=1;strokeWidth=3;strokeColor=#d79b00;exitX=0.5;exitY=1;exitDx=0;exitDy=0;endArrow=none;endFill=0;" edge="1" parent="1" source="user_nsk">
      <mxGeometry relative="1" as="geometry">
        <Array as="points">
          <mxPoint x="710" y="120" />
          <mxPoint x="440" y="120" />
        </Array>
        <mxPoint x="440" y="120" as="targetPoint" />
      </mxGeometry>
    </mxCell>
    <mxCell id="geodns_to_cdn_moscow" style="edgeStyle=orthogonalEdgeStyle;rounded=0;orthogonalLoop=1;jettySize=auto;html=1;strokeWidth=4;strokeColor=#b85450;entryX=0.5;entryY=0;entryDx=0;entryDy=0;exitX=0.25;exitY=1;exitDx=0;exitDy=0;" edge="1" parent="1" source="geodns" target="cdn_moscow">
      <mxGeometry relative="1" as="geometry">
        <Array as="points">
          <mxPoint x="360" y="240" />
          <mxPoint x="130" y="240" />
        </Array>
      </mxGeometry>
    </mxCell>
    <mxCell id="geodns_to_cdn_spb" style="edgeStyle=orthogonalEdgeStyle;rounded=0;orthogonalLoop=1;jettySize=auto;html=1;strokeWidth=4;strokeColor=#b85450;entryX=0.5;entryY=0;entryDx=0;entryDy=0;exitX=0.4;exitY=1;exitDx=0;exitDy=0;" edge="1" parent="1" source="geodns" target="cdn_spb">
      <mxGeometry relative="1" as="geometry">
        <Array as="points">
          <mxPoint x="384" y="240" />
          <mxPoint x="270" y="240" />
        </Array>
      </mxGeometry>
    </mxCell>
    <mxCell id="geodns_to_cdn_kzn" style="edgeStyle=orthogonalEdgeStyle;rounded=0;orthogonalLoop=1;jettySize=auto;html=1;strokeWidth=4;strokeColor=#b85450;entryX=0.5;entryY=0;entryDx=0;entryDy=0;exitX=0.6;exitY=1;exitDx=0;exitDy=0;" edge="1" parent="1" source="geodns" target="cdn_kzn">
      <mxGeometry relative="1" as="geometry">
        <Array as="points">
          <mxPoint x="416" y="240" />
          <mxPoint x="530" y="240" />
        </Array>
      </mxGeometry>
    </mxCell>
    <mxCell id="geodns_to_cdn_nsk" style="edgeStyle=orthogonalEdgeStyle;rounded=0;orthogonalLoop=1;jettySize=auto;html=1;strokeWidth=4;strokeColor=#b85450;entryX=0.5;entryY=0;entryDx=0;entryDy=0;exitX=0.75;exitY=1;exitDx=0;exitDy=0;" edge="1" parent="1" source="geodns" target="cdn_nsk">
      <mxGeometry relative="1" as="geometry">
        <Array as="points">
          <mxPoint x="440" y="240" />
          <mxPoint x="670" y="240" />
        </Array>
      </mxGeometry>
    </mxCell>
    <mxCell id="cdn_to_origin1" style="edgeStyle=orthogonalEdgeStyle;rounded=0;orthogonalLoop=1;jettySize=auto;html=1;strokeWidth=3;strokeColor=#9673a6;entryX=0;entryY=0.3;entryDx=0;entryDy=0;entryPerimeter=0;exitX=1;exitY=0.5;exitDx=0;exitDy=0;dashed=1;" edge="1" parent="1" source="cdn_moscow" target="object_storage">
      <mxGeometry relative="1" as="geometry">
        <Array as="points">
          <mxPoint x="180" y="390" />
          <mxPoint x="750" y="390" />
          <mxPoint x="750" y="323" />
        </Array>
      </mxGeometry>
    </mxCell>
    <mxCell id="cdn_to_origin2" style="edgeStyle=orthogonalEdgeStyle;rounded=0;orthogonalLoop=1;jettySize=auto;html=1;strokeWidth=3;strokeColor=#9673a6;entryX=0;entryY=0.5;entryDx=0;entryDy=0;entryPerimeter=0;exitX=1;exitY=0.5;exitDx=0;exitDy=0;dashed=1;" edge="1" parent="1" source="cdn_spb" target="object_storage">
      <mxGeometry relative="1" as="geometry">
        <Array as="points">
          <mxPoint x="320" y="390" />
          <mxPoint x="750" y="390" />
          <mxPoint x="750" y="345" />
        </Array>
      </mxGeometry>
    </mxCell>
    <mxCell id="cdn_to_origin3" style="edgeStyle=orthogonalEdgeStyle;rounded=0;orthogonalLoop=1;jettySize=auto;html=1;strokeWidth=3;strokeColor=#9673a6;entryX=0;entryY=0.7;entryDx=0;entryDy=0;entryPerimeter=0;exitX=1;exitY=0.5;exitDx=0;exitDy=0;dashed=1;" edge="1" parent="1" source="cdn_kzn" target="object_storage">
      <mxGeometry relative="1" as="geometry">
        <Array as="points">
          <mxPoint x="580" y="390" />
          <mxPoint x="750" y="390" />
          <mxPoint x="750" y="367" />
        </Array>
      </mxGeometry>
    </mxCell>
    <mxCell id="cdn_to_origin4" style="edgeStyle=orthogonalEdgeStyle;rounded=0;orthogonalLoop=1;jettySize=auto;html=1;strokeWidth=3;strokeColor=#9673a6;entryX=0;entryY=0.9;entryDx=0;entryDy=0;entryPerimeter=0;exitX=1;exitY=0.5;exitDx=0;exitDy=0;dashed=1;" edge="1" parent="1" source="cdn_nsk" target="object_storage">
      <mxGeometry relative="1" as="geometry">
        <Array as="points">
          <mxPoint x="720" y="390" />
          <mxPoint x="1020" y="390" />
          <mxPoint x="1020" y="389" />
        </Array>
      </mxGeometry>
    </mxCell>
    <mxCell id="cdn_to_apisix" style="edgeStyle=orthogonalEdgeStyle;rounded=0;orthogonalLoop=1;jettySize=auto;html=1;strokeWidth=4;strokeColor=#56517e;entryX=0.5;entryY=0;entryDx=0;entryDy=0;exitX=0.5;exitY=1;exitDx=0;exitDy=0;" edge="1" parent="1" source="geodns" target="apisix">
      <mxGeometry relative="1" as="geometry">
        <Array as="points">
          <mxPoint x="400" y="420" />
          <mxPoint x="400" y="420" />
        </Array>
      </mxGeometry>
    </mxCell>
    <mxCell id="apisix_to_consul" style="edgeStyle=orthogonalEdgeStyle;rounded=0;orthogonalLoop=1;jettySize=auto;html=1;strokeWidth=3;strokeColor=#666666;entryX=0;entryY=0.5;entryDx=0;entryDy=0;entryPerimeter=0;exitX=1;exitY=0.5;exitDx=0;exitDy=0;dashed=1;" edge="1" parent="1" source="apisix" target="consul">
      <mxGeometry relative="1" as="geometry" />
    </mxCell>
    <mxCell id="apisix_to_app1" style="edgeStyle=orthogonalEdgeStyle;rounded=0;orthogonalLoop=1;jettySize=auto;html=1;strokeWidth=3;strokeColor=#0066cc;entryX=0.5;entryY=0;entryDx=0;entryDy=0;exitX=0.25;exitY=1;exitDx=0;exitDy=0;" edge="1" parent="1" source="apisix" target="app1">
      <mxGeometry relative="1" as="geometry">
        <Array as="points">
          <mxPoint x="365" y="530" />
          <mxPoint x="260" y="530" />
        </Array>
      </mxGeometry>
    </mxCell>
    <mxCell id="apisix_to_app2" style="edgeStyle=orthogonalEdgeStyle;rounded=0;orthogonalLoop=1;jettySize=auto;html=1;strokeWidth=3;strokeColor=#0066cc;exitX=0.5;exitY=1;exitDx=0;exitDy=0;" edge="1" parent="1" source="apisix">
      <mxGeometry relative="1" as="geometry">
        <Array as="points">
          <mxPoint x="400" y="605" />
        </Array>
        <mxPoint x="400" y="605" as="targetPoint" />
      </mxGeometry>
    </mxCell>
    <mxCell id="apisix_to_app3" style="edgeStyle=orthogonalEdgeStyle;rounded=0;orthogonalLoop=1;jettySize=auto;html=1;strokeWidth=3;strokeColor=#0066cc;entryX=0.5;entryY=0;entryDx=0;entryDy=0;exitX=0.75;exitY=1;exitDx=0;exitDy=0;" edge="1" parent="1" source="apisix" target="app3">
      <mxGeometry relative="1" as="geometry">
        <Array as="points">
          <mxPoint x="435" y="530" />
          <mxPoint x="625" y="530" />
        </Array>
      </mxGeometry>
    </mxCell>
    <mxCell id="app1_to_consul" style="edgeStyle=orthogonalEdgeStyle;rounded=0;orthogonalLoop=1;jettySize=auto;html=1;strokeWidth=2;strokeColor=#666666;exitX=0.75;exitY=0;exitDx=0;exitDy=0;dashed=1;" edge="1" parent="1" source="app1">
      <mxGeometry relative="1" as="geometry">
        <Array as="points">
          <mxPoint x="290" y="540" />
          <mxPoint x="820" y="540" />
          <mxPoint x="820" y="510" />
        </Array>
        <mxPoint x="820" y="510" as="targetPoint" />
      </mxGeometry>
    </mxCell>
    <mxCell id="app2_to_consul" style="edgeStyle=orthogonalEdgeStyle;rounded=0;orthogonalLoop=1;jettySize=auto;html=1;strokeWidth=2;strokeColor=#666666;exitX=0.5;exitY=0;exitDx=0;exitDy=0;dashed=1;entryX=0.431;entryY=0.999;entryDx=0;entryDy=0;entryPerimeter=0;" edge="1" parent="1" source="app2" target="consul">
      <mxGeometry relative="1" as="geometry">
        <Array as="points">
          <mxPoint x="445" y="550" />
          <mxPoint x="835" y="550" />
          <mxPoint x="835" y="510" />
        </Array>
        <mxPoint x="640" y="510" as="targetPoint" />
      </mxGeometry>
    </mxCell>
    <mxCell id="app3_to_consul" style="edgeStyle=orthogonalEdgeStyle;rounded=0;orthogonalLoop=1;jettySize=auto;html=1;strokeWidth=2;strokeColor=#666666;exitX=0.25;exitY=0;exitDx=0;exitDy=0;dashed=1;entryX=0.565;entryY=1.018;entryDx=0;entryDy=0;entryPerimeter=0;" edge="1" parent="1" source="app3" target="consul">
      <mxGeometry relative="1" as="geometry">
        <Array as="points">
          <mxPoint x="595" y="560" />
          <mxPoint x="850" y="560" />
        </Array>
        <mxPoint x="670" y="510" as="targetPoint" />
      </mxGeometry>
    </mxCell>
    <mxCell id="app1_to_redis" style="edgeStyle=orthogonalEdgeStyle;rounded=0;orthogonalLoop=1;jettySize=auto;html=1;strokeWidth=3;strokeColor=#FF9900;exitX=0.75;exitY=1;exitDx=0;exitDy=0;" edge="1" parent="1" source="app1">
      <mxGeometry relative="1" as="geometry">
        <Array as="points">
          <mxPoint x="290" y="690" />
          <mxPoint x="775" y="690" />
          <mxPoint x="775" y="647" />
        </Array>
        <mxPoint x="985" y="647" as="targetPoint" />
      </mxGeometry>
    </mxCell>
    <mxCell id="app2_to_redis" style="edgeStyle=orthogonalEdgeStyle;rounded=0;orthogonalLoop=1;jettySize=auto;html=1;strokeWidth=3;strokeColor=#FF9900;exitX=0.75;exitY=1;exitDx=0;exitDy=0;" edge="1" parent="1" source="app2">
      <mxGeometry relative="1" as="geometry">
        <Array as="points">
          <mxPoint x="475" y="690" />
          <mxPoint x="775" y="690" />
          <mxPoint x="775" y="670" />
        </Array>
        <mxPoint x="985" y="670" as="targetPoint" />
      </mxGeometry>
    </mxCell>
    <mxCell id="app3_to_redis" style="edgeStyle=orthogonalEdgeStyle;rounded=0;orthogonalLoop=1;jettySize=auto;html=1;strokeWidth=3;strokeColor=#FF9900;exitX=0.75;exitY=1;exitDx=0;exitDy=0;" edge="1" parent="1">
      <mxGeometry relative="1" as="geometry">
        <Array as="points">
          <mxPoint x="655" y="690" />
          <mxPoint x="975" y="690" />
        </Array>
        <mxPoint x="655" y="670" as="sourcePoint" />
        <mxPoint x="985" y="690" as="targetPoint" />
      </mxGeometry>
    </mxCell>
    <mxCell id="app1_to_mongos" style="edgeStyle=orthogonalEdgeStyle;rounded=0;orthogonalLoop=1;jettySize=auto;html=1;strokeWidth=3;strokeColor=#0066cc;entryX=0.5;entryY=0;entryDx=0;entryDy=0;exitX=0.25;exitY=1;exitDx=0;exitDy=0;" edge="1" parent="1" source="app1" target="router1">
      <mxGeometry relative="1" as="geometry">
        <Array as="points">
          <mxPoint x="230" y="740" />
          <mxPoint x="490" y="740" />
        </Array>
      </mxGeometry>
    </mxCell>
    <mxCell id="app2_to_mongos" style="edgeStyle=orthogonalEdgeStyle;rounded=0;orthogonalLoop=1;jettySize=auto;html=1;strokeWidth=3;strokeColor=#0066cc;entryX=0.5;entryY=0;entryDx=0;entryDy=0;exitX=0.5;exitY=1;exitDx=0;exitDy=0;" edge="1" parent="1" source="app2" target="router2">
      <mxGeometry relative="1" as="geometry">
        <Array as="points">
          <mxPoint x="445" y="740" />
          <mxPoint x="710" y="740" />
        </Array>
      </mxGeometry>
    </mxCell>
    <mxCell id="app3_to_mongos" style="edgeStyle=orthogonalEdgeStyle;rounded=0;orthogonalLoop=1;jettySize=auto;html=1;strokeWidth=3;strokeColor=#0066cc;entryX=0.5;entryY=0;entryDx=0;entryDy=0;exitX=0.5;exitY=1;exitDx=0;exitDy=0;" edge="1" parent="1" source="app3" target="router3">
      <mxGeometry relative="1" as="geometry">
        <Array as="points">
          <mxPoint x="625" y="740" />
          <mxPoint x="890" y="740" />
        </Array>
      </mxGeometry>
    </mxCell>
    <mxCell id="config_bus" value="" style="rounded=0;whiteSpace=wrap;html=1;fillColor=none;strokeColor=#B85450;strokeWidth=2;dashed=1;" vertex="1" parent="1">
      <mxGeometry x="400" y="960" width="230" height="20" as="geometry" />
    </mxCell>
    <mxCell id="router1_to_config" style="endArrow=classic;html=1;rounded=0;exitX=0.5;exitY=1;exitDx=0;exitDy=0;dashed=1;entryX=0.5;entryY=0;entryDx=0;entryDy=0;strokeWidth=2;strokeColor=#B85450;" edge="1" parent="1" source="router1" target="config_bus">
      <mxGeometry width="50" height="50" relative="1" as="geometry">
        <mxPoint x="490" y="870" as="sourcePoint" />
        <mxPoint x="469" y="960" as="targetPoint" />
      </mxGeometry>
    </mxCell>
    <mxCell id="router2_to_config" style="endArrow=classic;html=1;rounded=0;exitX=0.5;exitY=1;exitDx=0;exitDy=0;entryX=0.5;entryY=0;entryDx=0;entryDy=0;dashed=1;strokeWidth=2;strokeColor=#B85450;" edge="1" parent="1" source="router2" target="config_bus">
      <mxGeometry width="50" height="50" relative="1" as="geometry">
        <mxPoint x="710" y="870" as="sourcePoint" />
        <mxPoint x="515" y="960" as="targetPoint" />
      </mxGeometry>
    </mxCell>
    <mxCell id="router3_to_config" style="endArrow=classic;html=1;rounded=0;exitX=0.5;exitY=1;exitDx=0;exitDy=0;entryX=0.5;entryY=0;entryDx=0;entryDy=0;dashed=1;strokeWidth=2;strokeColor=#B85450;" edge="1" parent="1" source="router3" target="config_bus">
      <mxGeometry width="50" height="50" relative="1" as="geometry">
        <mxPoint x="890" y="870" as="sourcePoint" />
        <mxPoint x="561" y="960" as="targetPoint" />
      </mxGeometry>
    </mxCell>
    <mxCell id="config_to_primary" style="edgeStyle=orthogonalEdgeStyle;rounded=0;orthogonalLoop=1;jettySize=auto;html=1;strokeWidth=2;strokeColor=#b85450;entryX=0.5;entryY=0;entryDx=0;entryDy=0;" edge="1" parent="1">
      <mxGeometry relative="1" as="geometry">
        <mxPoint x="400" y="970" as="sourcePoint" />
        <Array as="points">
          <mxPoint x="190" y="970" />
        </Array>
        <mxPoint x="190" y="1010" as="targetPoint" />
      </mxGeometry>
    </mxCell>
    <mxCell id="shard_bus" value="" style="rounded=0;whiteSpace=wrap;html=1;fillColor=none;strokeColor=#82b366;strokeWidth=3;dashed=1;" vertex="1" parent="1">
      <mxGeometry x="700" y="960" width="300" height="20" as="geometry" />
    </mxCell>
    <mxCell id="router1_to_shard" style="endArrow=classic;html=1;rounded=0;exitX=0.5;exitY=1;exitDx=0;exitDy=0;entryX=0.5;entryY=0;entryDx=0;entryDy=0;strokeWidth=3;strokeColor=#82b366;" edge="1" parent="1" source="router1" target="shard_bus">
      <mxGeometry width="50" height="50" relative="1" as="geometry">
        <mxPoint x="490" y="870" as="sourcePoint" />
        <mxPoint x="780" y="960" as="targetPoint" />
      </mxGeometry>
    </mxCell>
    <mxCell id="router2_to_shard" style="endArrow=classic;html=1;rounded=0;exitX=0.5;exitY=1;exitDx=0;exitDy=0;entryX=0.5;entryY=0;entryDx=0;entryDy=0;strokeWidth=3;strokeColor=#82b366;" edge="1" parent="1" source="router2" target="shard_bus">
      <mxGeometry width="50" height="50" relative="1" as="geometry">
        <mxPoint x="710" y="870" as="sourcePoint" />
        <mxPoint x="900" y="960" as="targetPoint" />
      </mxGeometry>
    </mxCell>
    <mxCell id="router3_to_shard" style="endArrow=classic;html=1;rounded=0;exitX=0.5;exitY=1;exitDx=0;exitDy=0;strokeWidth=3;strokeColor=#82b366;entryX=0.5;entryY=0;entryDx=0;entryDy=0;" edge="1" parent="1" source="router3" target="shard_bus">
      <mxGeometry width="50" height="50" relative="1" as="geometry">
        <mxPoint x="890" y="870" as="sourcePoint" />
        <mxPoint x="890" y="960" as="targetPoint" />
      </mxGeometry>
    </mxCell>
    <mxCell id="shard_bus_to_shard1" style="edgeStyle=orthogonalEdgeStyle;rounded=0;orthogonalLoop=1;jettySize=auto;html=1;exitX=0.5;exitY=1;exitDx=0;exitDy=0;endArrow=classic;endFill=1;strokeWidth=3;strokeColor=#82B366;entryX=0.5;entryY=0;entryDx=0;entryDy=0;" edge="1" parent="1" source="shard_bus" target="shard1_group">
      <mxGeometry relative="1" as="geometry">
        <mxPoint x="1100" y="1070" as="targetPoint" />
        <Array as="points">
          <mxPoint x="850" y="1030" />
          <mxPoint x="915" y="1030" />
        </Array>
      </mxGeometry>
    </mxCell>
    <mxCell id="shard_bus_to_shard2" style="edgeStyle=orthogonalEdgeStyle;rounded=0;orthogonalLoop=1;jettySize=auto;html=1;exitX=1;exitY=0.5;exitDx=0;exitDy=0;endArrow=classic;endFill=1;strokeWidth=3;strokeColor=#82B366;entryX=0.5;entryY=0;entryDx=0;entryDy=0;" edge="1" parent="1" source="shard_bus" target="shard2_group">
      <mxGeometry relative="1" as="geometry">
        <Array as="points">
          <mxPoint x="1265" y="970" />
        </Array>
      </mxGeometry>
    </mxCell>
    <mxCell id="config_repl1" style="edgeStyle=orthogonalEdgeStyle;rounded=0;orthogonalLoop=1;jettySize=auto;html=1;strokeWidth=2;strokeColor=#ff6666;dashed=1;entryX=0;entryY=0.5;entryDx=0;entryDy=0;entryPerimeter=0;exitX=1;exitY=0.5;exitDx=0;exitDy=0;exitPerimeter=0;" edge="1" parent="1" source="config1" target="config2">
      <mxGeometry relative="1" as="geometry" />
    </mxCell>
    <mxCell id="config_repl2" style="edgeStyle=orthogonalEdgeStyle;rounded=0;orthogonalLoop=1;jettySize=auto;html=1;strokeWidth=2;strokeColor=#ff6666;dashed=1;entryX=0.5;entryY=0;entryDx=0;entryDy=0;entryPerimeter=0;exitX=0.5;exitY=1;exitDx=0;exitDy=0;exitPerimeter=0;" edge="1" parent="1" source="config2" target="config3">
      <mxGeometry relative="1" as="geometry">
        <Array as="points">
          <mxPoint x="245" y="1170" />
          <mxPoint x="185" y="1170" />
        </Array>
      </mxGeometry>
    </mxCell>
    <mxCell id="config_repl3" style="edgeStyle=orthogonalEdgeStyle;rounded=0;orthogonalLoop=1;jettySize=auto;html=1;exitX=0.5;exitY=0;exitDx=0;exitDy=0;exitPerimeter=0;entryX=0.5;entryY=1;entryDx=0;entryDy=0;entryPerimeter=0;dashed=1;strokeWidth=2;strokeColor=#FF6666;" edge="1" parent="1" source="config3" target="config1">
      <mxGeometry relative="1" as="geometry">
        <Array as="points">
          <mxPoint x="185" y="1170" />
          <mxPoint x="125" y="1170" />
        </Array>
      </mxGeometry>
    </mxCell>
    <mxCell id="shard1_repl1" style="edgeStyle=orthogonalEdgeStyle;rounded=0;orthogonalLoop=1;jettySize=auto;html=1;strokeWidth=2;strokeColor=#82B366;dashed=1;entryX=0;entryY=0.5;entryDx=0;entryDy=0;entryPerimeter=0;exitX=1;exitY=0.5;exitDx=0;exitDy=0;exitPerimeter=0;align=center;verticalAlign=middle;fontFamily=Helvetica;fontSize=11;fontColor=default;labelBackgroundColor=default;endArrow=classic;" edge="1" parent="1" source="shard1_1" target="shard1_2">
      <mxGeometry relative="1" as="geometry" />
    </mxCell>
    <mxCell id="shard1_repl2" style="edgeStyle=orthogonalEdgeStyle;rounded=0;orthogonalLoop=1;jettySize=auto;html=1;strokeWidth=2;strokeColor=#82B366;dashed=1;entryX=0.5;entryY=0;entryDx=0;entryDy=0;entryPerimeter=0;exitX=0.5;exitY=1;exitDx=0;exitDy=0;exitPerimeter=0;" edge="1" parent="1" source="shard1_2" target="shard1_3">
      <mxGeometry relative="1" as="geometry" />
    </mxCell>
    <mxCell id="shard1_repl3" style="edgeStyle=orthogonalEdgeStyle;rounded=0;orthogonalLoop=1;jettySize=auto;html=1;strokeWidth=2;strokeColor=#82B366;dashed=1;entryX=0.5;entryY=1;entryDx=0;entryDy=0;entryPerimeter=0;align=center;verticalAlign=middle;fontFamily=Helvetica;fontSize=11;fontColor=default;labelBackgroundColor=default;endArrow=classic;" edge="1" parent="1" target="shard1_1">
      <mxGeometry relative="1" as="geometry">
        <mxPoint x="920" y="1260" as="sourcePoint" />
      </mxGeometry>
    </mxCell>
    <mxCell id="shard2_repl1" style="edgeStyle=orthogonalEdgeStyle;rounded=0;orthogonalLoop=1;jettySize=auto;html=1;strokeWidth=2;strokeColor=#82B366;dashed=1;entryX=0;entryY=0.5;entryDx=0;entryDy=0;entryPerimeter=0;exitX=1;exitY=0.5;exitDx=0;exitDy=0;exitPerimeter=0;align=center;verticalAlign=middle;fontFamily=Helvetica;fontSize=11;fontColor=default;labelBackgroundColor=default;endArrow=classic;" edge="1" parent="1" source="shard2_1" target="shard2_2">
      <mxGeometry relative="1" as="geometry" />
    </mxCell>
    <mxCell id="shard2_repl2" style="edgeStyle=orthogonalEdgeStyle;rounded=0;orthogonalLoop=1;jettySize=auto;html=1;strokeWidth=2;strokeColor=#82B366;dashed=1;entryX=0.5;entryY=0;entryDx=0;entryDy=0;entryPerimeter=0;exitX=0.5;exitY=1;exitDx=0;exitDy=0;exitPerimeter=0;align=center;verticalAlign=middle;fontFamily=Helvetica;fontSize=11;fontColor=default;labelBackgroundColor=default;endArrow=classic;" edge="1" parent="1" source="shard2_2" target="shard2_3">
      <mxGeometry relative="1" as="geometry" />
    </mxCell>
    <mxCell id="shard2_repl3" style="edgeStyle=orthogonalEdgeStyle;rounded=0;orthogonalLoop=1;jettySize=auto;html=1;strokeWidth=2;strokeColor=#82B366;dashed=1;entryX=0.5;entryY=1;entryDx=0;exitY=0;exitDx=0;exitDy=0;exitPerimeter=0;align=center;verticalAlign=middle;fontFamily=Helvetica;fontSize=11;fontColor=default;labelBackgroundColor=default;endArrow=classic;" edge="1" parent="1" source="shard2_3" target="shard2_1">
      <mxGeometry relative="1" as="geometry" />
    </mxCell>
    <mxCell id="title1" value="Схема 5: CDN для глобальной доставки контента&lt;div&gt;Версия: 5.0 | Дата: 18.08.2025&lt;/div&gt;" style="text;html=1;strokeColor=none;fillColor=none;align=left;verticalAlign=top;whiteSpace=wrap;rounded=0;fontSize=16;fontStyle=1;" vertex="1" parent="1">
      <mxGeometry x="1000" y="40" width="450" height="50" as="geometry" />
    </mxCell>
    <mxCell id="label_geodns" value="GeoDNS&lt;div&gt;Маршрутизация&lt;/div&gt;" style="text;html=1;strokeColor=none;fillColor=none;align=center;verticalAlign=middle;whiteSpace=wrap;rounded=0;fontSize=14;fontStyle=2;" vertex="1" parent="1">
      <mxGeometry x="220" y="190" width="100" height="40" as="geometry" />
    </mxCell>
    <mxCell id="label_cdn" value="CDN PoP&lt;div&gt;(Кеш статики)&lt;/div&gt;" style="text;html=1;strokeColor=none;fillColor=none;align=center;verticalAlign=middle;whiteSpace=wrap;rounded=0;fontSize=12;fontStyle=2;" vertex="1" parent="1">
      <mxGeometry x="300" y="390" width="100" height="40" as="geometry" />
    </mxCell>
    <mxCell id="label_origin" value="&lt;font style=&quot;font-size: 14px;&quot;&gt;Origin Server&lt;/font&gt;&lt;div&gt;&lt;font style=&quot;font-size: 14px;&quot;&gt;(Источник)&lt;/font&gt;&lt;/div&gt;" style="text;html=1;strokeColor=none;fillColor=none;align=center;verticalAlign=middle;whiteSpace=wrap;rounded=0;fontSize=10;fontStyle=2;" vertex="1" parent="1">
      <mxGeometry x="840" y="280" width="100" height="40" as="geometry" />
    </mxCell>
    <mxCell id="label_api_balancing" value="Load Balancing&lt;div&gt;Round-Robin&lt;/div&gt;" style="text;html=1;strokeColor=none;fillColor=none;align=center;verticalAlign=middle;whiteSpace=wrap;rounded=0;fontSize=14;fontStyle=2;" vertex="1" parent="1">
      <mxGeometry x="265" y="740" width="120" height="40" as="geometry" />
    </mxCell>
    <mxCell id="label_service_discovery" value="&lt;font style=&quot;font-size: 14px;&quot;&gt;Service Discovery&lt;/font&gt;&lt;div&gt;&lt;font style=&quot;font-size: 14px;&quot;&gt;Автообнаружение&lt;/font&gt;&lt;/div&gt;" style="text;html=1;strokeColor=none;fillColor=none;align=center;verticalAlign=middle;whiteSpace=wrap;rounded=0;fontSize=10;fontStyle=2;" vertex="1" parent="1">
      <mxGeometry x="875" y="510" width="120" height="40" as="geometry" />
    </mxCell>
    <mxCell id="label_cache" value="Cache-Aside&lt;div&gt;(Приоритетный путь)&lt;/div&gt;" style="text;html=1;strokeColor=none;fillColor=none;align=center;verticalAlign=middle;whiteSpace=wrap;rounded=0;fontSize=14;fontStyle=2;" vertex="1" parent="1">
      <mxGeometry x="790" y="605" width="170" height="40" as="geometry" />
    </mxCell>
    <mxCell id="label_config" value="Метаданные кластера" style="text;html=1;strokeColor=none;fillColor=none;align=center;verticalAlign=middle;whiteSpace=wrap;rounded=0;fontSize=12;fontStyle=2;" vertex="1" parent="1">
      <mxGeometry x="455" y="990" width="120" height="30" as="geometry" />
    </mxCell>
    <mxCell id="label_shards" value="Данные пользователей" style="text;html=1;strokeColor=none;fillColor=none;align=center;verticalAlign=middle;whiteSpace=wrap;rounded=0;fontSize=12;fontStyle=2;" vertex="1" parent="1">
      <mxGeometry x="720" y="990" width="120" height="30" as="geometry" />
    </mxCell>
  </root>
</mxGraphModel>
